<?xml version="1.0" encoding="utf-8"?>
<!-- Generator: Adobe Illustrator 23.0.1, SVG Export Plug-In . SVG Version: 6.00 Build 0)  -->
<svg version="1.1" id="Layer_1" xmlns="http://www.w3.org/2000/svg" xmlns:xlink="http://www.w3.org/1999/xlink" x="0px" y="0px"
	 viewBox="0 0 100 100" style="enable-background:new 0 0 100 100;" xml:space="preserve">
<style type="text/css">
	.st0{fill:none;}
</style>
<g>
	<g transform="translate(50 50) scale(0.69 0.69) rotate(0) translate(-50 -50)">
		<g>
			<rect x="-22.5" y="-22.5" class="st0" width="144.9" height="144.9"/>
			<path d="M11.8,4C9.6,5.2,6.8,4.5,5.6,2.3C4.3,0.1,5.1-2.6,7.2-3.9c12.4-7.2,26.5-11,41.1-11c14.7,0,28.7,3.9,41,11.2
				c2.2,1.3,2.9,4.1,1.6,6.2c-1.3,2.2-4.1,2.9-6.2,1.6C73.9-2.4,61.4-5.9,48.4-5.9C35.4-5.9,22.8-2.4,11.8,4z"/>
			<path d="M-0.5,36.3c-1.3,2.1-4.1,2.7-6.2,1.4c-2.1-1.3-2.7-4.1-1.4-6.2C4.2,11.8,25-0.2,48.4-0.2c23.6,0,44.6,12,56.5,31.7
				c1.3,2.1,0.6,4.9-1.5,6.2c-2.1,1.3-4.9,0.6-6.2-1.5C86.8,19.2,68.7,8.9,48.4,8.9C28.2,8.9,10.3,19.2-0.5,36.3z"/>
			<path d="M39.6,105.8c1.7,1.8,1.7,4.7-0.1,6.4c-1.8,1.7-4.7,1.7-6.4-0.1C19.9,98.7,12.3,81.7,12.3,67.4
				c0-21.4,15.2-38.1,36.1-38.1c20.1,0,34.8,15.2,36.9,36.5c0.3,2.5-1.6,4.7-4,5c-2.5,0.3-4.7-1.6-5-4
				c-1.7-16.9-12.7-28.4-27.9-28.4c-15.6,0-27,12.4-27,29C21.4,79.2,28,94,39.6,105.8z"/>
			<path d="M43,65.3c-0.4-2.5,1.3-4.8,3.7-5.2c2.5-0.4,4.8,1.3,5.2,3.7c1.2,7.5,3.2,13,6.4,17.4c2.9,4,7.2,7.4,11.7,9.2
				c2.9,1.2,6,1.8,9.2,1.8c2.2,0,4.4-0.3,6.6-0.9c2.4-0.7,4.9,0.8,5.6,3.2c0.7,2.4-0.8,4.9-3.2,5.6c-2.9,0.8-5.9,1.2-9,1.2
				c-4.4,0-8.6-0.8-12.6-2.4c-6.1-2.4-11.8-6.9-15.7-12.2C46.9,80.9,44.4,74.1,43,65.3z"/>
			<path d="M11.5,89c1.2,2.2,0.3,5-1.9,6.1s-5,0.3-6.1-1.9C-0.4,86-2.3,77-2.3,67.4c0-29.6,21.8-52.9,50.7-52.8
				c29.7,0.1,52.7,25.3,51.7,53c-0.4,11.9-9,17.8-19.8,18c-10,0.2-18.5-7-20.2-17.5c-1.7-10.5-6-14.8-12.8-14.4
				c-7,0.5-10.5,4.6-10.6,12.6c-0.2,11.3,7.4,25,16.6,32.5c4.4,3.5,8.7,5.1,17.9,7c2.4,0.5,4,2.9,3.5,5.4c-0.5,2.4-2.9,4-5.4,3.5
				c-10.5-2.2-16-4.2-21.8-8.9c-11.2-9.1-20.1-25.3-19.9-39.7c0.2-12.5,7.1-20.7,19.1-21.5c12-0.8,19.9,7.3,22.3,21.9
				c1,6,5.7,10,11.1,9.9c6.5-0.1,10.7-3,10.9-9.3c0.8-22.7-18.2-43.6-42.7-43.6c-23.7,0-41.6,19.1-41.6,43.8
				C6.7,75.6,8.4,83.1,11.5,89z"/>
		</g>
	</g>
</g>
</svg>
